<svg width="32" height="32" viewBox="0 0 32 32" fill="none" xmlns="http://www.w3.org/2000/svg">
<rect width="32" height="32" rx="16" fill="black"/>
<path d="M23.1896 15.8853L16.3742 9.15332C16.3252 9.10472 16.2669 9.06616 16.2027 9.03985C16.1386 9.01354 16.0698 9 16.0003 9C15.9308 9 15.8621 9.01354 15.7979 9.03985C15.7337 9.06616 15.6754 9.10472 15.6264 9.15332L8.81107 15.8853C8.61251 16.0816 8.5 16.3482 8.5 16.6262C8.5 17.2036 8.97487 17.673 9.55895 17.673H10.277V22.4766C10.277 22.7661 10.5137 23 10.8065 23H14.9414V19.3363H16.7945V23H21.1941C21.487 23 21.7236 22.7661 21.7236 22.4766V17.673H22.4417C22.723 17.673 22.9927 17.5634 23.1912 17.3655C23.6032 16.9566 23.6032 16.2942 23.1896 15.8853Z" fill="#FFFBFF"/>
</svg>
