<svg width="25" height="25" viewBox="0 0 25 25" fill="none" xmlns="http://www.w3.org/2000/svg">
<path fill-rule="evenodd" clip-rule="evenodd" d="M4.41345 5.94746C4.41345 5.15181 4.72952 4.38875 5.29213 3.82614C5.85474 3.26353 6.6178 2.94746 7.41345 2.94746H17.4135C18.2091 2.94746 18.9722 3.26353 19.5348 3.82614C20.0974 4.38875 20.4135 5.15181 20.4135 5.94746V21.9755C20.4135 23.1955 19.0335 23.9055 18.0415 23.1965L12.4135 19.1765L6.78545 23.1965C5.79245 23.9065 4.41345 23.1965 4.41345 21.9765V5.94746ZM7.41345 4.94746C7.14824 4.94746 6.89388 5.05282 6.70635 5.24036C6.51881 5.42789 6.41345 5.68225 6.41345 5.94746V21.0045L11.5415 17.3415C11.7959 17.1597 12.1008 17.062 12.4135 17.062C12.7261 17.062 13.031 17.1597 13.2855 17.3415L18.4135 21.0045V5.94746C18.4135 5.68225 18.3081 5.42789 18.1206 5.24036C17.933 5.05282 17.6787 4.94746 17.4135 4.94746H7.41345Z" fill="black"/>
</svg>
